<?xml version="1.0" encoding="utf-8"?>
<!-- Generator: Adobe Illustrator 21.0.0, SVG Export Plug-In . SVG Version: 6.00 Build 0)  -->
<svg version="1.1" xmlns="http://www.w3.org/2000/svg" xmlns:xlink="http://www.w3.org/1999/xlink" x="0px" y="0px"
	 viewBox="0 0 256 256" style="enable-background:new 0 0 256 256;" xml:space="preserve">
<style type="text/css">
	.st0{fill:url(#SVGID_1_);}
	.st1{fill:#FFFFFF;}
</style>
<g id="banner">
</g>
<g id="icon">
	<linearGradient id="SVGID_1_" gradientUnits="userSpaceOnUse" x1="58.8206" y1="197.1794" x2="197.1794" y2="58.8206">
		<stop  offset="0" style="stop-color:#56AB2F"/>
		<stop  offset="1" style="stop-color:#A4D85B"/>
	</linearGradient>
	<path class="st0" d="M248.675,110.316L145.684,7.325c-9.766-9.766-25.601-9.766-35.367,0L7.325,110.316
		c-9.766,9.766-9.766,25.601,0,35.367l102.992,102.992c9.766,9.766,25.601,9.766,35.367,0l102.992-102.992
		C258.442,135.917,258.442,120.083,248.675,110.316z"/>
	<g>
		<g>
			<path class="st1" d="M156.784,122.51l-18.441-18.441l4.349-4.349c1.137-1.137,0.478-3.084-1.116-3.297l-22.707-3.028
				c-1.268-0.169-2.35,0.913-2.181,2.181l3.028,22.707c0.213,1.594,2.16,2.253,3.297,1.116l4.349-4.349l18.441,18.441
				c9.817,9.817,9.817,25.79,0,35.606c-4.697,4.697-10.924,7.31-17.557,7.373c-6.882,0.065-13.471-2.796-18.338-7.662l-9.985-9.985
				c-0.758-0.758-1.987-0.758-2.745,0l-2.745,2.745c-3.79,3.79-3.79,9.936,0,13.726l4.784,4.784
				C106.905,187.766,117.127,192,128,192s21.095-4.234,28.784-11.923C172.655,164.206,172.655,138.381,156.784,122.51z"/>
			<path class="st1" d="M117.657,151.931l-4.349,4.349c-1.137,1.137-0.478,3.084,1.116,3.297l22.707,3.028
				c1.268,0.169,2.35-0.913,2.181-2.181l-3.028-22.707c-0.212-1.594-2.16-2.253-3.297-1.116l-4.349,4.349l-18.441-18.441
				c-9.817-9.817-9.817-25.79,0-35.606c4.697-4.697,10.924-7.31,17.557-7.373c6.882-0.065,13.471,2.796,18.338,7.662l9.985,9.985
				c0.758,0.758,1.987,0.758,2.745,0l2.745-2.745c3.79-3.79,3.79-9.936,0-13.726l-4.784-4.784C149.095,68.234,138.873,64,128,64
				s-21.095,4.234-28.784,11.923c-15.871,15.872-15.871,41.696,0,57.568L117.657,151.931z"/>
		</g>
	</g>
</g>
<g id="logo">
</g>
</svg>
